<?xml version="1.0" encoding="utf-8"?>
<!-- Generator: Adobe Illustrator 24.1.0, SVG Export Plug-In . SVG Version: 6.00 Build 0)  -->
<svg version="1.0" xmlns="http://www.w3.org/2000/svg" xmlns:xlink="http://www.w3.org/1999/xlink" x="0px" y="0px"
	 viewBox="0 0 457.4 490.2" style="enable-background:new 0 0 457.4 490.2;" xml:space="preserve">
<style type="text/css">
	.st0{fill:#242831;}
	.st1{fill:#CA4E4D;}
	.st2{fill:#282B30;}
	.st3{fill:#C4A899;}
	.st4{fill:#FFFFFF;stroke:#C4A899;stroke-width:1.6599;stroke-miterlimit:10;}
	.st5{fill:#FFFFFF;stroke:#C4A899;stroke-width:1.7438;stroke-miterlimit:10;}
	.st6{fill:#FFFFFF;stroke:#C4A899;stroke-width:1.48;stroke-miterlimit:10;}
	.st7{fill:#FFFFFF;stroke:#C4A899;stroke-width:1.5547;stroke-miterlimit:10;}
	.st8{fill:#FFFFFF;stroke:#C4A899;stroke-width:1.5034;stroke-miterlimit:10;}
	.st9{fill:#262A2F;}
	.st10{fill:#FFFFFF;}
	.st11{fill:#2A2C34;}
	.st12{fill:#FF535D;}
	.st13{fill:#292C31;}
	.st14{fill:#DF4B4B;}
	.st15{fill:#D8B832;}
	.st16{fill:#FF6C7A;}
	.st17{fill:#DA4A4A;}
	.st18{fill:none;stroke:#000000;stroke-width:1.6919;stroke-linecap:round;stroke-linejoin:round;stroke-miterlimit:10;}
	.st19{fill:#456BBE;}
	.st20{fill:#FBE1D5;}
	.st21{fill:#FD9880;}
	.st22{fill:#333537;}
	.st23{fill:#FFBE49;}
	.st24{fill:#FE9982;}
	.st25{fill:#EDA83A;}
	.st26{fill:#3253CC;}
	.st27{fill:#282B31;}
	.st28{fill:#DB3B40;}
	.st29{fill:#FF4342;}
	.st30{fill:#F2CD33;}
	.st31{fill:#D7EEF9;}
	.st32{fill:#BFD8E2;}
</style>
<g id="Layer_1">
	<path class="st0" d="M103.8,279.1H65.9l15.1,9l-2.7,2.4l-19.9-11.4H55c0,5.6-3.7,6.4-3.7,6.4H36.7V280l4.1-1.3l0.1,0v-4h62.9V279.1
		z"/>
	<polygon class="st1" points="40.8,278.7 40.8,285.4 36.7,285.4 36.7,280 	"/>
	<path class="st2" d="M78.1,209.7c-13.7-0.2-12.2,13.2-12.2,13.2v51.7h50.2v-52.8c0,0,0.1-12-12.3-12S91,220.5,91,220.5
		S90.3,209.9,78.1,209.7z"/>
	<polyline class="st3" points="119.9,222.9 136.5,222.9 136.5,230.8 134.6,230.8 134.6,237.7 136.9,237.7 136.9,248.4 133.7,248.4 
		133.7,257.2 135.6,257.2 135.6,274.2 124.2,274.2 119.9,274.2 119.9,222.9 	"/>
	<rect x="49.9" y="222.9" class="st4" width="35.8" height="9.7"/>
	<rect x="46.2" y="232.7" class="st5" width="39.5" height="9.7"/>
	<rect x="49.9" y="242.4" class="st6" width="35.8" height="7.7"/>
	<rect x="46.2" y="250.1" class="st7" width="39.5" height="7.7"/>
	<rect x="48.7" y="258.4" class="st8" width="37" height="7.7"/>
	<rect x="48.7" y="266.7" class="st8" width="37" height="7.7"/>
	<rect x="96.3" y="223.1" class="st8" width="27" height="9.7"/>
	<rect x="96.3" y="232.8" class="st8" width="29.8" height="9.7"/>
	<rect x="96.3" y="242.5" class="st8" width="27" height="7.7"/>
	<rect x="96.3" y="250.3" class="st8" width="29.8" height="7.7"/>
	<rect x="96.3" y="258.5" class="st8" width="27.9" height="7.7"/>
	<rect x="96.3" y="266.9" class="st8" width="27.9" height="7.7"/>
	<path class="st2" d="M356.9,248.8c0,0,5.3-1.2,5.3,3.6s0,21.8,0,21.8s-0.2,3.9-3.2,3.9c-3,0-8.1,0-8.1,0l0.6,29.1l-18.5-48.5
		c0,0,2.7-9.9,7.4-9.9C345,248.7,356.9,248.8,356.9,248.8z"/>
	<circle class="st9" cx="109.7" cy="395.3" r="43.9"/>
	<circle class="st10" cx="109.7" cy="395.3" r="28.8"/>
	<circle class="st11" cx="109.7" cy="395.3" r="18.3"/>
	<circle class="st9" cx="385.2" cy="395.3" r="43.9"/>
	<circle class="st10" cx="385.2" cy="395.3" r="28.8"/>
	<circle class="st11" cx="385.2" cy="395.3" r="18.3"/>
	<path class="st12" d="M363,346.7c-27,10.3-25.2,52-25.2,52l87.3-34.8C425.1,363.9,405.3,330.5,363,346.7z"/>
	<path class="st13" d="M314.4,222.1h-7.6c0,0-6.2-0.7-6.2,3.8c0,4.5,0,6.1,0,6.1s-0.3,3.7,2.4,3.7c2.7,0,8.8,0,8.8,0l4.1,8.8
		c0,0-5.8,2.5-5.8,6.2s0,5.5,0,5.5s0.7,4.1,7.3,4.1v74.3c0,0-7.8,50.3-39.8,53.5c0,7.3,0,8.9,0,8.9h52.7l7.5-86l-5.6-54l-1.8-8.1
		l-0.8-4.4H324l-5.5-11.6v-8.2L318,222v-8.3c0,0-0.9-7-5.9-7h-9.4v3.4h8.3c0,0,3.1-0.2,3.3,3.6C314.5,217.6,314.4,222.1,314.4,222.1
		z"/>
	<path class="st14" d="M272.4,203h14.7c0,0,3.1-0.2,3.1,3.7c0,3.9,0,5.9,0,5.9s-0.5,2-2.1,2c-1.6,0-16,0-16,0L272.4,203z"/>
	<path class="st15" d="M290.2,206.7h12.4c0,0,6.6-0.7,6.6,4.3c0,5.1,0,20.4,0,20.4h-4.4v-17.3c0,0,0.7-3.7-2.1-3.5
		c-4.7,0.2-12.5,0-12.5,0V206.7z"/>
	<path class="st16" d="M180.6,405.7h145.9c0,0,6.8,1.4,11.3-7c4.4-8.4,28.7-56.1,28.7-56.1l-36.9-98.1v92.3c0,0-7.3,44.9-22,51.3
		h-127V405.7"/>
	<polyline class="st2" points="127,389.4 161.3,389.4 161.3,370.7 181.4,370.7 181.4,405.7 125.6,405.7 125.6,389.4 127,389.4 	"/>
	<path class="st17" d="M65.8,346.7H38.2c-2.3,0-4.1-1.8-4.1-4.1v-18.2c0-2.3,1.8-4.1,4.1-4.1h27.6V346.7z"/>
	<path class="st0" d="M43.7,367.9v46.9c0,0,9-2.2,10.4-7.7v-39.2H43.7"/>
	<path class="st12" d="M59.3,323.3c0,0,4.6-43.1,50.4-49.1c12.5,0,80.9,0,80.9,0v87.4L59.3,323.3z"/>
	<path class="st16" d="M41.2,367.9c0,0-7.1-43.2,40.6-59.6h57.7c0,0,35.6,1.8,45.2,37.9V388c0,0-22.5,2.8-25.4-20.1H41.2z"/>
	<path class="st18" d="M53.9,331.1h87.3c0,0,21.1,0.4,21.1,18.9"/>
	<path class="st9" d="M79,354.4H50.8c-0.5,0-0.9-0.4-0.9-0.9v-1.2c0-0.5,0.4-0.9,0.9-0.9H79c0.5,0,0.9,0.4,0.9,0.9v1.2
		C79.9,354,79.5,354.4,79,354.4z"/>
	<path class="st9" d="M79,360.5H50.8c-0.5,0-0.9-0.4-0.9-0.9v-1.2c0-0.5,0.4-0.9,0.9-0.9H79c0.5,0,0.9,0.4,0.9,0.9v1.2
		C79.9,360.1,79.5,360.5,79,360.5z"/>
	<path class="st2" d="M151.9,274.2h-42.2c0,0,5.3,31.3,25.2,33h46.8V388h51.4v-5.8h-14.1c0,0-4.9,0-4.9-7.1s0-35.4,0-35.4
		s7.5-32,21.3-31.2v-33.9L151.9,274.2z"/>
	<path class="st2" d="M251.8,257.6c0,0,39.6-7.6,35.3,25.3s-13.8,92.4-13.8,92.4s17.2,4.9,17.2,12.7h-34.4L251.8,257.6z"/>
	<g>
		<path class="st19" d="M267.3,388h-34.2l0-12.7l-0.2-87.5c0,0-67.2-0.4-71.4-0.4c-4.2,0-4.8-2-4.8-2l36.8-33c0,0,34.9,1.5,56.8,1.4
			c21.9-0.1,15.5,35.3,15.5,35.3s-6.1,34.4-8.3,48.8c-2.2,14.4-4.4,37.2-4.4,37.2c0.5,0.1,0.9,0.1,1.3,0.2
			C265.6,377.8,267.3,388,267.3,388z"/>
	</g>
	<path class="st20" d="M267.3,388h-34.2l0-12.7h21.3C265.6,377.8,267.3,388,267.3,388z"/>
	<path class="st21" d="M202.1,94.5c0,0-0.3,6.6,0,8.1c0.3,1.6,4.3,5.9,3.7,6.7s-3.8,0.5-3.9,1.6c-0.1,1.1,0.6,11.7-3.6,12.6
		s-10.9,1.1-10.9,1.1s-1.8,1.1-1.8,2.8s-0.8,10.5-0.8,10.5l-24.2-4.5l1.4-14.3l3.7-26.1L202.1,94.5z"/>
	<path class="st22" d="M197.6,160.7l26.5,27.7l37.8,11.3h21.2c0,0,4.4,0.7,5.8,3.8c1.3,3.2-48.8,0-48.8,0l-29.9-8.4l-17.9-23
		L197.6,160.7z"/>
	<path class="st23" d="M276.2,203.9v9.8c-11.2,4.8-19.6,0-19.6,0s-0.8-0.1-2.3-0.2c-9.6-0.8-46-4.1-49.1-4.7
		c-3.5-0.7-5.5-3.7-5.5-3.7v47.5c0,0-37.8,30.3-42,32.5c-4.2,2.2-11.7-10.6-11.7-10.6l-2-104.7l3.4-17.2l23.5-12.8
		c0,0,20.2,6.3,25.5,11.3c5.4,5,2,20.2,2,20.2l19.9,21.1l35.8,8.5l0.1,0l4.8-2C273.8,194.4,276.2,203.9,276.2,203.9z"/>
	<path class="st24" d="M276.2,203.9v9.8c-11.2,4.8-19.6,0-19.6,0s-0.8-0.1-2.3-0.2v-12.6l0.1,0l4.8-2
		C273.8,194.4,276.2,203.9,276.2,203.9z"/>
	<polygon class="st25" points="199.8,205.1 177.5,184.4 199.8,239.8 	"/>
	<path class="st26" d="M195.8,145.4c0,0-21.6-22.1-47.4-14.7c-25.9,7.5-14.5,43.1-11.1,44.9c3.4,1.7,8.6,2.4,8.6,2.4
		s1.7-20.9,12.6-29c10.8-8.2,28.2-5.5,38.1,2.1C196.6,148.4,195.8,145.4,195.8,145.4z"/>
	<path class="st27" d="M152.3,95c0,0-0.5,2.2-1,3.7c-0.5,1.5,4.6,22.5,11.4,22.3c6.8-0.1,14.1-7.8,14.1-7.8s-9-0.5-8.8-8.7
		c0.3-8.2,6.3-7.2,8-7.3c1.7-0.1,2.8,1.7,2.8,2.2s0,6,0,6l4.8-0.1v-7.6c0,0,8-2.1,8.5-8.9C192.8,82.2,152.3,95,152.3,95z"/>
	<path class="st28" d="M220.3,86l-16.8,0.3L183.7,91c0,0,13.9,9.1,30.4,4.5C216.8,94.5,221.3,92.3,220.3,86z"/>
	<path class="st29" d="M169.7,65.6c-23.6,5.3-18.3,33.1-18.3,33.1l52.1-12.4C203.5,86.3,200.2,58.7,169.7,65.6z"/>
	<circle class="st2" cx="283.1" cy="189" r="7.8"/>
	<path class="st2" d="M288.9,188.3h8.5c0,0,8.5-0.7,8.5,6.9s0,11.5,0,11.5h-2.7v-11.1c0,0,0.7-4.9-5.8-4.9s-8.5,0-8.5,0V188.3z"/>
	<circle class="st30" cx="272.4" cy="186.8" r="8.6"/>
	<path class="st30" d="M278.8,186h9.4c0,0,9.4-0.7,9.4,7.6c0,8.3,0,13.1,0,13.1h-3v-12.6c0,0,0.7-5.4-6.4-5.4c-7.2,0-9.4,0-9.4,0
		V186z"/>
</g>
<g id="Layer_2">
	<path class="st31" d="M206.7,109.7c-0.1,1.2-0.6,6.5-1.2,7.5c-0.4,0.9-3.2,4.5-4.8,6c-0.3,0.3-0.6,0.6-0.8,0.6
		c-1,0.4-7.8,1.5-7.8,1.5l-2.6-7.3l-17.1-5.5l0.6-0.1l17.2,4.2l5.9-0.5c0,0,1.5-0.8,1.5-2.1c0-1.4-0.9-4.6-0.9-4.6s-0.2-1-1.4-1.3
		c-1.2-0.3-16.6-8.6-16.6-8.6l-0.8-1.4l18.2,8.9l7.4-3.9C203.8,103.2,206.8,108.4,206.7,109.7z"/>
</g>
<g id="Layer_3">
	<path class="st32" d="M200.8,123.2c-0.3,0.3-0.6,0.6-0.8,0.6c-1,0.4-7.8,1.5-7.8,1.5l-2.6-7.3l-17.1-5.5l0.7-0.1l17.2,4.2
		L200.8,123.2z"/>
	<polygon class="st32" points="205.5,117.2 199.1,114 204.2,119.2 	"/>
	<path class="st32" d="M169.5,99.7l-17.2,4.4l0.3,1.2l16.5-4.8C169.1,100.4,169.4,99.8,169.5,99.7z"/>
</g>
<g id="Layer_4">
	<polygon class="st32" points="156.4,115.1 172.7,112.2 173.2,112.4 156.8,116 	"/>
</g>
</svg>
